<?xml version="1.0" encoding="iso-8859-1"?>
<!-- Uploaded to: SVG Repo, www.svgrepo.com, Generator: SVG Repo Mixer Tools -->
<svg fill="#000000" height="800px" width="800px" version="1.1" id="Layer_1" xmlns="http://www.w3.org/2000/svg" xmlns:xlink="http://www.w3.org/1999/xlink" 
	 viewBox="0 0 300.134 300.134" xml:space="preserve">
<g>
	<g>
		<g>
			<path d="M283.595,156.774c0-7.719-2.678-14.822-7.144-20.443c4.969-5.114,7-11.844,6.255-18.282
				C274.931,50.751,217.909,0,150.067,0S25.203,50.751,17.428,118.051c-0.744,6.444,1.291,13.173,6.256,18.282
				c-4.466,5.619-7.145,12.722-7.145,20.443v0.146c0,9.066,3.684,17.286,9.632,23.247c-5.948,5.96-9.632,14.18-9.632,23.247v0.144
				c0,7.526,2.544,14.466,6.81,20.018c-4.195,4.102-6.81,9.812-6.81,16.129v23.662c0,20.272,16.493,36.765,36.765,36.765H246.83
				c20.272,0,36.765-16.493,36.765-36.765v-23.662c0-6.316-2.615-12.027-6.81-16.129c4.266-5.552,6.81-12.492,6.81-20.018v-0.144
				c0-9.066-3.684-17.286-9.632-23.247c5.948-5.96,9.632-14.18,9.632-23.247V156.774z M36.649,120.269
				C43.298,62.737,92.056,19.35,150.067,19.35s106.771,43.387,113.417,100.919c0.219,1.903-1.286,3.582-3.216,3.582
				c-7.883,0-212.686,0-220.403,0C37.947,123.852,36.428,122.182,36.649,120.269z M35.889,203.414
				c0-7.483,6.089-13.572,13.572-13.572h107.55l30.826,27.287H49.461c-7.483,0-13.572-6.088-13.572-13.571V203.414z
				 M186.205,189.842h25.173l-12.587,11.142L186.205,189.842z M264.245,263.366c0,9.603-7.812,17.415-17.415,17.415H53.304
				c-9.603,0-17.415-7.812-17.415-17.415v-23.662c0-1.779,1.447-3.225,3.225-3.225c14.196,0,214.677,0,221.906,0
				c1.778,0,3.225,1.446,3.225,3.225V263.366z M264.245,203.558c0,7.483-6.089,13.572-13.572,13.572h-40.928l30.826-27.287h10.102
				c7.483-0.001,13.572,6.088,13.572,13.571V203.558z M264.245,156.921c0,7.483-6.089,13.572-13.572,13.572
				c-13.277,0-76.444,0-89.994,0H49.461c-7.483,0-13.572-6.089-13.572-13.572v-0.146c0-7.483,6.089-13.572,13.572-13.572h201.212
				c7.483,0,13.572,6.089,13.572,13.572V156.921z"/>
			<circle cx="134.128" cy="53.167" r="6.45"/>
			<circle cx="104.517" cy="71.311" r="6.45"/>
			<circle cx="166.007" cy="53.167" r="6.45"/>
			<circle cx="195.617" cy="71.311" r="6.45"/>
		</g>
	</g>
</g>
</svg>